# xmcd
#
# Track frame offsets: 
#        150
#        19322
#        33458
#        46527
#        65699
#        74521
#        88002
#        102862
#        123487
#        138347
#        162769
#
# Disc length: 2360 seconds
#
# Revision: 0
# Processed by: cddbd v1.5.2PL0 Copyright (c) Steve Scherf et al.
# Submitted via: ExactAudioCopyFreeDBPlugin 1.0
#
DISCID=9309360b
DTITLE=Sons Of Settlers - Lullabies For The Restless
DYEAR=2014
DGENRE=Blues
TTITLE0=I Lost Myself
TTITLE1=Stay Together
TTITLE2=Former Lover
TTITLE3=I Know That You Want Me
TTITLE4=Trippin' Shit
TTITLE5=Take Me To The Waterside
TTITLE6=The Valley Next To The Sea
TTITLE7=You Are Not Alone
TTITLE8=It's Cold Outside
TTITLE9=To Yesterday
TTITLE10=Lullabies For The Restless
EXTD=
EXTT0=
EXTT1=
EXTT2=
EXTT3=
EXTT4=
EXTT5=
EXTT6=
EXTT7=
EXTT8=
EXTT9=
EXTT10=
PLAYORDER=
